<svg xmlns="http://www.w3.org/2000/svg" viewBox="0 0 997.52 508.82"><defs><style>.cls-1{fill:#010101;}.cls-2{fill:#0a0b0c;}.cls-3{fill:#050606;}.cls-4{fill:#0b0c0d;}.cls-5{fill:#070707;}.cls-6{fill:#060607;}.cls-7{fill:#0f1010;}.cls-8{fill:#111112;}.cls-9{fill:#0d0e0e;}.cls-10{fill:#101010;}.cls-11{fill:#0c0d0d;}.cls-12{fill:#121213;}.cls-13{fill:#171818;}.cls-14{fill:#161717;}.cls-15{fill:#131414;}.cls-16{fill:#141515;}.cls-17{fill:#131313;}.cls-18{fill:#1a1b1b;}.cls-19{fill:#080909;}.cls-20{fill:#151616;}.cls-21{fill:#181818;}.cls-22{fill:#151516;}.cls-23{fill:#191a1a;}.cls-24{fill:#0e0f0f;}.cls-25{fill:#7db948;}.cls-26{fill:#25abe0;}.cls-27{fill:#e02684;}.cls-28{fill:#ed7b25;}.cls-29{fill:#30aae0;}</style></defs><g id="Layer_2" data-name="Layer 2"><g id="Layer_1-2" data-name="Layer 1"><path class="cls-1" d="M810.51,152.32c0-38.46-.07-76.56,0-114.65,0-8.25,2.41-10.53,10.56-10.72,9.3-.21,18.62.25,27.91-.17,6.54-.3,10.19,2.58,13.15,8.08q31.37,58.43,63.07,116.68,14.12,26.1,28.33,52.15c1,1.78,1.82,5.31,3.67,4.69,2.42-.82,1-4.2,1-6.4q.13-80.85.08-161.69c0-12.34,1-13.3,13.14-13.4,5.89,0,11.79-.06,17.68.12,5.16.15,7.94,3,8.29,8.14.17,2.47.11,5,.11,7.43V260q0,3.25-.06,6.5c-.13,5.66-3.36,8.76-8.69,8.91-10.85.3-21.71.14-32.57.09-5.44,0-8-3.79-10.4-8q-20.94-37.2-42-74.32-24-42.37-48-84.74c-1.31-2.31-2.86-6.79-4.49-6.16-3.14,1.21-1.33,5.3-1.33,8.12q-.15,75.27-.1,150.54c0,13.47-1.19,14.62-14.94,14.63H824.67c-12.55,0-13.46-.89-13.47-13.06q0-45.07,0-90.14C811.18,165.56,811.62,158.74,810.51,152.32Z"/><path class="cls-1" d="M376.09,150.64q0-54.84,0-109.66c0-12.49,1.51-14.06,13.8-14.07q64.69-.09,129.38,0c11.15,0,12.69,1.72,12.79,13.13,0,4,0,8.06,0,12.08-.05,13.24-.77,13.94-14.45,13.94H426.4a40,40,0,0,1-4.65,0c-4.74-.58-6.57,1.18-6.52,6.16.23,18.9.3,37.8,0,56.69-.1,5.76,2.44,6.54,7.24,6.51,23.89-.17,47.78-.1,71.67-.09a55.75,55.75,0,0,1,7.43.27c4.17.55,6.8,2.78,6.8,7.32q0,12.08,0,24.15c0,5.76-3.74,7.36-8.58,7.41-10.54.12-21.09.11-31.64.12-15.2,0-30.41.26-45.6-.12-5.82-.14-7.41,1.76-7.29,7.4.34,15.79.37,31.6,0,47.38-.14,5.85,1.79,7.31,7.42,7.27,34.12-.23,68.25-.11,102.38-.1,2.48,0,5,0,7.44.12,4.43.26,7,2.91,7.13,7.09.31,8,.28,16.1.08,24.15-.12,4.73-3.2,7.16-7.71,7.75a45.13,45.13,0,0,1-5.58.08q-68.42,0-136.82,0c-11.85,0-13.42-1.53-13.43-13.42Q376,206.4,376.09,150.64Z"/><path class="cls-1" d="M669.47,280.47c-28.28-.46-56-7-78.31-28.77-1.55-1.52-3.15-3-4.61-4.59-7.65-8.39-7.36-11.73,1.63-18.64,4.17-3.22,8.32-6.46,12.64-9.48,5.93-4.15,8.75-3.79,13.69,1.34,23.61,24.54,61.45,32,92.19,18.31,10.81-4.82,18.85-12.13,20.8-24.22,2-12.27-2.86-21.71-13.59-28.1-11.9-7.08-25.19-10-38.51-12.81-19.94-4.16-39.81-8.19-58.77-16.28C573.29,138.74,571.85,91.67,589,63.67c12.2-19.93,30.65-31.6,52.9-36.29,29.54-6.23,58.57-3.94,85.82,10.42a90.87,90.87,0,0,1,30.82,26.31c5.05,6.77,4.3,11.24-2.44,16.39-4.42,3.39-8.83,6.8-13.36,10-6.8,4.85-10,4.57-14.78-2-21.23-29-53.05-33.66-83.85-24.72-16.84,4.89-26.33,17-27,31.62-.5,11.8,4.48,20.16,14.67,25.79,13.49,7.44,28.33,10.4,43.21,13.28,17,3.29,33.93,6.69,49.91,13.61,22.68,9.82,37.74,25.71,40,51.24,3.61,41.15-20.13,63.57-49.95,74.35C700.85,278.85,686.08,280.43,669.47,280.47Z"/><path class="cls-2" d="M807.25,458.67a15,15,0,0,0-15.46-6.13c-8.6,1.94-8.6,1.94-8.66-7.16a21.51,21.51,0,0,1,.06-2.78c.72-6.14-3.63-5.07-7.24-5.15s-6.82-.63-6.48,4.92c.44,7.08.11,14.21.11,21.32,0,7.43,0,14.85,0,22.28,0,2-1,5,2.17,5.19s8.65,1.9,9.2-1.12c1.4-7.6,3.56-2.11,5.65-1a24.53,24.53,0,0,0,4.22,1.91,15.31,15.31,0,0,0,16.45-5.64C811.64,479.1,811.61,465.23,807.25,458.67ZM790.34,482c-4.45.5-7.06-3.12-7.22-9.6-.17-6.75,2.63-10.92,7.16-10.66s6.88,3.89,6.91,10.1C796.92,476.54,796.48,481.28,790.34,482Z"/><path class="cls-3" d="M645.76,485.11c-4.33-11.87-8.88-23.67-12.76-35.68-1.93-6-4.28-10.1-11.62-8.27-2.66,1.28-6.93-2.15-8.66,2.74q-7.85,22.19-15.67,44.37c-.36,1-1.11,2.07.62,2.94,4.07,2.06,12-.66,13.2-5.1s3.36-6.76,8.27-5.94a21.66,21.66,0,0,0,6.48,0c3.86-.55,6,1.28,6.26,4.78.55,6.57,4.89,6.26,9.81,6.59C648,492,647.21,489.09,645.76,485.11Zm-24.61-14.25c-4.94.95-5.32-1.2-3.82-5,1.12-2.87,1.83-5.91,2.7-8.87.35-1.22.87-2.71,2.23-2.47s1,1.93,1.34,3a42.82,42.82,0,0,0,2.18,7.06C628.44,470.05,626.85,472,621.15,470.86Z"/><path class="cls-4" d="M953.89,471.21c0-4.31-.11-8.63.05-12.94.08-2.21-1.13-5.86,2.61-5.69,3.14.15,7.86-2.91,9.37,2.36,1,3.36,1.88,2,3.34.8a15.35,15.35,0,0,1,10.27-3.43c8,.15,12.78,4.28,13.21,12.3.35,6.46.14,12.95.09,19.43s-5.22,9.82-11.27,7.18c-2.31-1-1.87-2.9-1.91-4.63-.13-6.17-.1-12.34-.28-18.5-.1-3.32-1.09-6.3-5.14-6.38s-6.22,2.65-6.45,6.39a130.48,130.48,0,0,0-.19,17.57c.41,5.59-2.49,5.94-6.75,5.8-3.86-.14-7.53.42-7-5.47C954.21,481.1,953.88,476.14,953.89,471.21Z"/><path class="cls-5" d="M948.44,482.92c-7.33-2.7-4.29-8.66-4.46-13.19-.48-13.1-4.68-17.4-18.43-17.39a19.47,19.47,0,0,0-13.65,4.07c-2.13,1.67-4.36,4.16-3.44,7,1,3.16,4.79,1.94,7.2,3.06,2.08,1,3.17-1.08,4.28-2.59,1.42-1.93,3.58-2.33,5.81-2.24,2.41.09,4.22,1.28,4.7,3.69.62,3.14-1.78,3.28-4,3.68a83,83,0,0,0-9.92,2.17c-6.76,2.13-10.1,6.58-9.37,12,.75,5.54,4.84,8.07,12.54,8.25,4.61.1,8-2.5,12-4,3.68-1.42,6.34,5.21,11.22,4,2-.49,4.53.31,5.27-2.59C948.68,486.83,950.18,483.56,948.44,482.92Zm-24.27-.78c-2.11-.05-4.07-1-3.69-3.07.71-3.85,4.46-3.69,7.36-4.38,1.75-.42,3,.32,3,2.53C930,480.49,927.78,482.22,924.17,482.14Z"/><path class="cls-5" d="M857.14,483c-7.25-3.1-4.64-8.92-4.28-13.3C854,456,845,452.15,834.56,452.32c-6.4,0-12.39,1.1-16.18,7-1.9,3-2.71,5.47,2.42,6.38,3.54.62,6.18,1.52,8.69-2.32,1.57-2.4,4.86-2.3,7.61-.84,1.49.78,2.59,2,2.26,3.67-.68,3.33-3.63,2.56-6,3a51.54,51.54,0,0,0-8.06,2.08,20.32,20.32,0,0,0-5.65,3.05,9.18,9.18,0,0,0-3.3,10.7c1.4,4.33,4.77,6.18,9.23,6.32,5,.17,9.39-.52,14-3.39s7.46,5.26,13,3.56C856.3,490.36,860,484.27,857.14,483Zm-22.46-1c-3,.15-5.31-.33-5.32-2.46,0-4.25,4-3.87,6.73-4.82,1.42-.51,3.23-.51,3.43,1.68C839.91,480.72,836.46,481.14,834.68,482.08Z"/><path class="cls-6" d="M706.43,474.72c3.09-.12,6.18-.05,9.28-.05v0a59,59,0,0,1,7.41.06c5.63.72,7-1.78,6.23-6.94-1.25-8.94-7.21-14.63-16.82-15.41-11.33-.92-19.51,3.78-22,12.63s.11,18.22,6.24,22.72c6.57,4.83,19.59,5.1,26.33.42,2.24-1.56,5.7-3.87,4.26-6.3-1.78-3-6-4.09-9.76-3.1-1.36.35-2.33,2-3.69,2.61-3.41,1.41-6.67,1.13-9.2-1.94a4,4,0,0,1-1.19-3.34C703.83,474.2,705.38,474.76,706.43,474.72Zm3.49-13.19c3.08,0,6.27,1.31,6,4.16-.25,3.08-3.92.93-6,1.6-2.09-1.13-6.24,2.28-6.46-1.9C703.35,462.7,706.92,461.55,709.92,461.53Z"/><path class="cls-6" d="M667.43,491.39c-3.39,0-6.81.2-10.19-.08-2.21-.18-5.42,1.6-6.44-1.65-.9-2.89-.89-6,1.55-8.64,4.6-5,9-10.12,13.48-15.23.76-.88,2-2.06,1.83-2.89-.4-2.13-2.46-1.11-3.8-1.2a77.33,77.33,0,0,0-8.34,0c-3.16.14-5.15-.31-5.2-4.38-.06-4.33,1.78-5.12,5.53-5,7.41.21,14.83,0,22.24.14,2.22.05,5.48-1.45,6.46,1.63a8.43,8.43,0,0,1-1.64,8.66c-4.8,5.22-9.43,10.59-14.13,15.89-.77.87-2.15,1.67-1.22,3,.37.51,1.68.46,2.56.48a96.2,96.2,0,0,0,10.19,0c4.22-.4,4.89,1.47,5.16,5.27.33,4.63-2.31,4.08-5.06,4.08Z"/><path class="cls-7" d="M165.2,387.24c0-5,0-9.91,0-14.87,0-2,1.37-4.68,2.9-3.16,4,3.94,6.82.55,10.32-.15,4.51-.9,9.46-1.34,13.27,2.13,2.45,2.23,3.75,2.32,6.85.42,12.63-7.76,23.62-1.48,23.92,13.24.11,5.88,0,11.76,0,17.64,0,2.69-1.34,3.87-4,3.84s-2.69-2-2.7-3.83c0-5.88.07-11.77,0-17.65-.12-7-2.45-10.09-7.71-10.54s-10.34,4-10.78,10.2c-.41,5.54-.2,11.13-.26,16.71,0,2.51.23,5.25-3.62,5-3.16-.24-2.87-2.66-2.9-4.79-.06-5.57,0-11.15-.12-16.72-.09-4.91-1-9.51-7-10.3A10.54,10.54,0,0,0,171.79,384c-.55,5.21-.09,10.52-.39,15.77-.14,2.34,1.73,6.07-2.85,6.35-4.77.3-3.21-3.5-3.31-5.91C165.06,395.91,165.19,391.57,165.2,387.24Z"/><path class="cls-8" d="M699.52,374.37c0,9,.1,17.95.1,26.93,0,2.1.45,4.63-2.75,4.91-3.75.32-3.71-2.35-3.71-4.92,0-12.69-.07-25.39,0-38.08,0-2.21-1.15-5.38,2.82-5.62,2.72-.16,5.18-.36,7.07,2.84C709.31,371.1,716,381.52,722.56,392c.73,1.17.78,3.33,2.85,2.8.42-.11.45-2.21.45-3.39,0-9.6,0-19.2,0-28.8,0-2.23-1-5.34,3.21-5.05,3.42.23,2.67,2.79,2.68,4.77.05,12.39.12,24.78-.07,37.16,0,2.35,1.74,5.88-2.56,6.68-3.33.62-5.81-.29-7.69-3.55-6.48-11.25-14.33-21.68-20.14-33.33C696.67,369.53,699.47,372.44,699.52,374.37Z"/><path class="cls-5" d="M900.32,475.74c0,6.49.36,13-.09,19.46-.73,10.61-13.63,17-22.91,11.72a3.48,3.48,0,0,1-1.82-4.59c.64-2.11,1.15-4.21,4.2-3.71,6.45,1.06,7.12-3.25,7.13-7.94,0-10.81.38-21.65-.17-32.43-.32-6.37,3.14-5.94,7.43-6s7,.36,6.46,5.92c-.58,5.81-.13,11.72-.13,17.59Z"/><path class="cls-9" d="M877.5,371.72c-.76,2.12-1.73,4.71-2.62,7.34-2.59,7.6-5.13,15.22-7.74,22.81-.82,2.36-1.7,4.44-5,4.46s-3.93-2.12-4.76-4.52c-2.12-6.11-4.38-12.17-6.62-18.24-.37-1,0-2.73-1.69-2.7s-1.65,1.57-2,2.72c-1.95,5.86-3.84,11.73-5.88,17.56-.89,2.52-1.37,5.45-5.34,5.22-3.32-.18-3.86-2.46-4.67-4.82-3-8.74-6.14-17.45-9.12-26.2-.72-2.1-3-5,.51-6.19,3.66-1.28,5.33,1.15,6.22,4.79,1.54,6.28,3.61,12.44,5.6,18.61.34,1.09,1.31,2.69,2.1,2.76,1.39.11,1-1.69,1.4-2.69,2.12-6.1,4.14-12.24,6.32-18.33.88-2.47,1.06-5.57,5.12-5.4s4.05,3.31,4.91,5.74c2.16,6.1,4,12.3,6.14,18.42a3.32,3.32,0,0,0,1.66,2c2.19.68,1.36-1.42,1.63-2.24,2.08-6.44,4-12.95,6-19.39.74-2.29,1.42-5,4.86-4.49C875.94,369.12,877.76,368.78,877.5,371.72Z"/><path class="cls-10" d="M520.94,368c0-4-.06-8-.05-12.07,0-2.76-1.38-3.86-4.07-3.7-2.53.16-2.89,1.86-2.91,3.84,0,4-.16,8.05-.06,12.07.1,3.69-.88,3.86-4.15,2.3-6.95-3.32-13.91-2.93-19.69,2.68s-6.46,20.05-1.83,27,12.63,8.7,22.32,4.65c1.63-.68,2.33-2,4.47-.07,4,3.56,6,1.57,6-3.28,0-7.12,0-14.23,0-21.35Q520.95,374,520.94,368Zm-18.25,33c-6.78-.16-11.19-5.24-11.32-13-.13-8,4.76-13.79,11.64-13.7,6.69.09,10.77,5,10.85,13.1C514,396.23,509.89,401.18,502.69,401Z"/><path class="cls-11" d="M377.21,407c-7.16-.17-13.33-1.74-18-6.92-1.44-1.59-3.13-3.22-.84-5.52s3.78-2.19,5.93.41c5.2,6.29,12.27,6.62,19.56,5,3.22-.72,5.63-2.89,5.63-6.43a6.09,6.09,0,0,0-4.85-6.07c-5-1.38-10.2-2.4-15.21-3.89-8.21-2.45-10.86-5.86-10.57-13,.27-6.82,4.64-11.75,12-13.18,8.25-1.59,16.08-1,22.33,5.54,1.78,1.86,3.43,3.84.71,6.25-2.5,2.21-3.88,1.36-5.75-1.25-4.24-5.94-10.52-5.92-16.77-4.19-2.95.82-5.79,2.63-5.7,6.39A6.9,6.9,0,0,0,371,377c5.63,1.63,11.49,2.57,16.93,4.63,8.52,3.24,11.12,10.74,6.64,17.85-2,3.18-4.69,5.71-8.65,6.46C382.92,406.51,379.91,407.34,377.21,407Z"/><path class="cls-12" d="M3.72,381.82c0-6.49.14-13-.05-19.48-.11-3.54,1.09-4.94,4.75-4.86,8.36.18,16.72,0,25.08.09,2.23,0,5.41-1,5.15,3.2-.22,3.34-2.83,2.62-4.84,2.65-6.19.08-12.39.19-18.58,0-7.14-.18-4.46,5.1-4.87,8.55-.44,3.6-.33,6.77,5,6.23,4.29-.43,8.67,0,13-.08,2.59,0,4.3.86,4,3.68-.22,2.29-1.92,2.85-4,2.83-4,0-8.09.41-12.06-.05-7.25-.83-6.1,4.08-6.09,8.26,0,3.85-1.09,8.19,5.71,7.54,6.45-.63,13-.15,19.5-.13,2.17,0,4.64-.21,4.51,3s-2.6,2.86-4.74,2.87c-9,.05-18,0-26.94.17-3.8.08-4.7-1.71-4.62-5.08C3.84,394.81,3.73,388.31,3.72,381.82Z"/><path class="cls-13" d="M558.13,398.05c-4.46,4.39-9.57,3.67-14.46,1.15-2.78-1.44-5.29-4.28-4.26-7.48.89-2.78,4.32-1.14,6.62-1.37,1.83-.18,3.7,0,5.56,0v0c3.08,0,6.18-.19,9.24.05,3.95.3,5.45-1.09,5.41-5.21-.09-9.11-5.47-15.71-14-16.48-11-1-18.35,3.83-19.83,13.3a40.08,40.08,0,0,0-.08,10.15c.64,6.25,3.61,11.31,9.73,13.45,6.94,2.41,14,2.59,20.15-2.34,1.43-1.14,4.31-2.45,2.27-5C562.71,396,560.39,395.83,558.13,398.05Zm-13.85-22.51c3.4-1.83,7-2.07,10.36.21,2.54,1.73,5.46,3.8,4.36,7.19-1,3.06-4.28.94-6.5,1.36a14.72,14.72,0,0,1-2.74,0v0a18.5,18.5,0,0,1-3.65-.05c-2.18-.43-5.53,1.5-6.34-1.55C538.91,379.44,541.5,377,544.28,375.54Z"/><path class="cls-14" d="M771.44,390.3c7.09-.11,7.9-1.05,7-8.09s-5.6-12.28-12-13.45c-9.12-1.66-16.51,1.21-19.81,8.18a24.27,24.27,0,0,0-.66,19.68c4.38,11.37,22.52,14.54,30,5.3.85-1.05,2.5-2.12,1.06-3.85a3.76,3.76,0,0,0-4.12-1.4c-1.35.49-2.35,1.87-3.64,2.61-6,3.38-13.29,2-16.37-3.27-1.81-3.06-2.7-6,2.79-5.79,3.09.12,6.18,0,9.27,0v.06C767.12,390.3,769.28,390.33,771.44,390.3Zm-6.64-6a13.46,13.46,0,0,1-2.77,0v.06a10.59,10.59,0,0,1-2.76,0c-2.45-.7-6.31,2-7.25-1.71-1-3.89,2.67-6,5.61-7.53a9.41,9.41,0,0,1,8.89.17c2.86,1.46,5.7,3.91,5.26,7C771.2,386.21,767.24,383.77,764.8,384.3Z"/><path class="cls-15" d="M113.43,401.58c-4.34-1.38-3.86-4.11-3.9-7.11,0-3.72,0-7.43,0-11.15-.15-10.66-4.07-14.6-14.53-14.64-5.84,0-8.58.52-11.33,3.09-1.88,1.75-5.13,3.62-2.91,6.76,2.62,3.7,4.5.32,6.62-1.27,5-3.76,10.28-3.93,13.4-.67,3.36,3.5,2.51,6.37-2.19,7.81-3.55,1.08-7.32.86-10.85,2.35-7.06,3-9.72,6.54-8.54,12.35,1.09,5.33,5.8,8,12.94,7.91,5.9-.11,11.78-5.2,17.77-.11.5.42,1.9.13,2.69-.23C115.29,405.39,116.65,402.61,113.43,401.58ZM92,401.15c-2.33.07-5.19-.39-5.74-3.83-.59-3.64,5.82-7.27,13-7.85,2.86-.24,4,.89,3.85,3.59C102.89,397.81,98.5,401.17,92,401.15Z"/><path class="cls-16" d="M736,471.55c0-4-.26-8,.1-12,.22-2.59-2-7.15,3.06-7,3.11.09,8.47-3.35,9.15,3.75.34,3.47,1.87,1.11,2.59.16a9.87,9.87,0,0,1,4.39-3.23c2.91-1.2,7.13-2.31,8.43.31s-.11,6.56-1,9.75c-.55,2-2.56.14-3.91.25-6.51.55-8.75,2.59-9.11,9.07a70.72,70.72,0,0,0,0,12c.71,6.09-2.1,6.89-7.45,7-5.86.12-6.58-2.49-6.31-7.15C736.25,480.18,736.05,475.86,736,471.55Z"/><path class="cls-17" d="M903.18,368.68c-9.83-1.19-18.34,4.92-18.7,19.17-.29,11.83,6.71,18.92,18,19.11,11.73.2,18.73-7.07,18.66-19.37C921.12,375.64,914.56,368.75,903.18,368.68Zm-.93,32.58c-6.68-.32-10.74-5.41-10.75-13.47,0-8.66,4.23-13.63,11.54-13.52s11.2,5,11.08,13.85C914,396.58,909.48,401.59,902.25,401.26Z"/><path class="cls-18" d="M577.69,387.63c0-4.94,0-9.89,0-14.83,0-2.53,1.59-5.16,3.71-3.44,3.6,2.93,5.89.59,9-.27,12.13-3.38,20,2.74,20.1,15.36.07,5.88,0,11.75,0,17.62,0,2.22.14,4.35-3.18,4.26-3-.09-3.52-1.93-3.54-4.29,0-5.88,0-11.76-.15-17.62-.22-6.68-2.92-9.82-8.31-10.09a10.33,10.33,0,0,0-10.71,9.26c-.51,5.83-.25,11.73-.35,17.6,0,2.47.3,5.24-3.55,5-3.14-.18-3-2.5-3-4.67,0-4.64,0-9.28,0-13.92Z"/><path class="cls-19" d="M963.84,379.37c0-7.12-.07-14.24.06-21.36,0-2.18-1.16-5.47,2.69-5.66,4.84-.23,3,3.73,3.11,6,.22,8.05.07,16.1.11,24.15,0,1.14-.51,2.64.75,3.28,1.47.74,2.11-.91,2.9-1.68,3.8-3.64,7.47-7.41,11.23-11.09a17.91,17.91,0,0,1,4.23-3.54c1.91-.94,4.79-1.53,6,.24s-1.7,2.88-2.74,4.33c-2.69,3.74-9,5.85-8.63,10.27.32,4,4.61,7.77,7.17,11.64a39.45,39.45,0,0,1,3,4.65c.8,1.68,4.28,3.36,1.63,5.13a5.23,5.23,0,0,1-7.35-1.6,107.79,107.79,0,0,0-6.24-9.21c-1.43-1.78-2-5.73-4.82-4.71a11.89,11.89,0,0,0-6.91,7c-.59,1.67-.28,3.68-.24,5.53,0,2.13-.46,3.53-3,3.5s-3-1.6-3-3.65C963.84,394.85,963.83,387.11,963.84,379.37Z"/><path class="cls-18" d="M268,387.71c0,4.94-.05,9.89,0,14.83,0,2.57-1.57,5.25-3.47,3.49-3.92-3.61-6.64-.39-9.79.38-12.48,3-19.28-2-19.57-14.68-.12-5.25-.2-10.51,0-15.75.12-2.69-1.62-7.16,3.48-6.85,4.82.3,2.82,4.65,3,7.34.29,4.93,0,9.89.16,14.82.3,7.45,2.17,9.51,8.25,9.64,6.62.14,10.52-3.15,10.92-9.81.34-5.54.14-11.12.16-16.68,0-2.93.14-5.94,4.24-5.48,3.8.41,2.42,3.65,2.53,5.78C268.11,379.05,268,383.39,268,387.71Z"/><path class="cls-16" d="M138.65,368.7c5.19-.3,9.88.6,13,5.28,1.17,1.73,1.49,3.33-.31,4.87s-3.5,1.55-4.72-.33c-2.86-4.41-6.95-4.82-11.44-3.8-2.22.51-4.18,2.23-4.2,4.41a4.46,4.46,0,0,0,3.92,4.51c3.34.62,6.69,1.27,10,2.18,5.1,1.42,9.17,4,9.24,10.05.06,5.18-3.72,9.35-9.95,10.55-6.87,1.32-13.63,1.07-19.22-4-1.54-1.38-3.57-3.13-1.11-5.35,1.73-1.57,3.5-2,5.46.26,3.7,4.31,8.74,4.07,13.74,3.2a4.16,4.16,0,0,0,3.55-3.78c.27-2.18-1-3.55-2.94-4.14-3.53-1.09-7.08-2.12-10.69-2.92-5.83-1.28-9.65-4.33-9.4-10.69.23-5.8,5.21-9.81,12.29-10.34C136.79,368.63,137.73,368.69,138.65,368.7Z"/><path class="cls-16" d="M294,407.12c-4.57-.34-9.43-1-13.12-4.9-1.29-1.36-2.83-3-1.07-4.71,1.34-1.31,3.06-3,5.27-.35,3.59,4.34,8.7,4,13.68,3.53a4.51,4.51,0,0,0,4.22-4.22c.25-2.15-1.5-3.42-3.23-4-3.79-1.21-7.67-2.16-11.56-3.06-5.15-1.18-8.18-4.16-8.21-9.57s3-8.46,7.79-10.26c6.44-2.42,15.32-1.1,19,3.11,1.52,1.75,3.85,3.63.86,6.15-2.25,1.9-3.73,1-5.28-1.07-2.77-3.69-6.71-4.11-10.85-3.13-2.22.52-4.21,2.2-4.33,4.33a4.51,4.51,0,0,0,3.84,4.56c2.72.57,5.41,1.25,8.1,1.9,8.4,2,11.83,5.34,11.46,11.05-.36,5.41-5,9.3-12.42,10.38C296.86,407.07,295.61,407,294,407.12Z"/><path class="cls-20" d="M473.81,387.42c0,4.94,0,9.87,0,14.8,0,3.69-1.83,5.51-5.13,3.17-2.31-1.64-3.71-.86-5.77,0a19.32,19.32,0,0,1-13.58.83c-4.89-1.49-8.07-4.66-8.21-9.92-.21-7.7-.07-15.42-.08-23.13,0-2.27.08-4.48,3.29-4.25,3.36.25,2.57,2.85,2.6,4.83.1,5.55-.05,11.1.14,16.65.28,8,2.23,10.21,8.61,10.36,7,.18,11-3.27,11.33-10.38.29-5.85,0-11.72.11-17.57,0-1.8-.11-3.84,2.62-3.92,2.57-.08,4.12.92,4.12,3.7,0,4.93,0,9.86,0,14.79Z"/><path class="cls-5" d="M862.65,472.3c0-5.26.06-10.51,0-15.77-.1-6.74,5-3.64,8-4.16,3.39-.59,5.87-.05,5.71,4.66-.33,9.88-.28,19.79,0,29.67.17,6.53-4.45,4.37-7.72,4.71-3.79.4-6.69,0-6.13-5.22.49-4.58.1-9.26.1-13.89Z"/><path class="cls-13" d="M807.89,400c2.17-1.48,4-1.17,4.72,1.67s-1.43,3.58-3.51,4.39c-9.17,3.54-16-1-16.2-10.8-.09-4.33,0-8.67,0-13,0-3.85,1.25-8.63-5.58-7.75-1.44.18-1.81-1.29-1.83-2.6s.41-3,1.63-2.85c5.34.74,6.22-2.06,5.88-6.43-.19-2.32,1.51-3.08,3.59-3.24,2.59-.2,3.36,1.52,3.06,3.46-.93,6.08,2.58,6.52,7.12,6a21,21,0,0,1,3.71.13c1.87.14,2.67,1.25,2.7,3,0,2.1-1.48,2.36-3,2.61-3.28.51-7.7-1.69-9.63,1.37-2.09,3.3-.66,7.85-.81,11.84-.07,1.86,0,3.72,0,5.57C799.79,398.77,801.8,401.81,807.89,400Z"/><path class="cls-21" d="M411.43,387.54c0-2.16-.09-4.33,0-6.5.17-3.62.23-7-5-6.55a2,2,0,0,1-2.4-2.14c0-1.65.4-3.44,2.32-3.26,5.07.49,5.34-2.44,5.21-6.24-.09-2.84,2.14-3.45,4.48-3.5,2.88-.07,2.73,2.16,2.45,3.86-.92,5.67,2.44,6,6.59,5.66a23.21,23.21,0,0,1,4.64.13c1.41.17,1.93,1.24,2,2.59.11,1.79-.44,2.81-2.44,3.06-3.31.43-7.71-1.63-9.7,1.08-2.56,3.47-.7,8.35-1,12.61-.13,1.85.08,3.72,0,5.57-.33,5.4,2.29,7.55,7.36,6.24,2.52-.66,4.92-2.13,5.53,1.83.53,3.5-2.45,3.83-4.75,4.49-8.92,2.57-14.76-1.48-15.24-10.57C411.32,393.13,411.44,390.33,411.43,387.54Z"/><path class="cls-22" d="M626.11,387c0-2.46,0-4.93,0-7.39s-.08-5.05-3.72-5c-1.93,0-3.83-.25-3.54-2.92.2-1.73,1.2-2.88,3-2.73,3.84.31,4.59-1.66,4.3-5-.25-2.88,1.25-4.76,4.37-4.61,3.69.18,2.31,3.18,2.16,4.87-.4,4.63,2.18,5,5.66,4.7a29.31,29.31,0,0,1,5.54.1c1.89.23,2.28,1.71,2.21,3.37-.06,1.46-.87,2-2.29,2.23-3.54.52-8.65-1.87-10.29,1.61s-.6,8.44-.7,12.74c0,1.54,0,3.08,0,4.62,0,5.65,2.83,8,8.29,6.42,2.25-.66,4.16-1.7,4.84,1.54.56,2.66-1,3.75-3.34,4.6-8.59,3.14-15.68-1-16.53-9.9-.3-3.06,0-6.16,0-9.24Z"/><path class="cls-23" d="M50.07,387.31c0-5,0-9.92,0-14.87,0-2,1.72-4.77,2.74-3.35,4.35,6,7.57-.51,11.24-.38,1.24.05,2.48-.06,3.72,0,1.87,0,4,0,4,2.6,0,2.1-1.08,3-3.3,3.53-10.43,2.68-11.33,3.93-11.59,14.24-.11,4.33-.08,8.66-.11,13,0,2.36-.45,4.24-3.49,4.34-3.24.11-3.27-1.91-3.26-4.2,0-4.95,0-9.91,0-14.86Z"/><path class="cls-24" d="M932.54,387.63c0-4.92,0-9.84,0-14.76,0-1.75.87-5.05,2.4-3.61,5,4.77,8.91-1.37,13.26-.53,2,.4,5.43-1.57,5.73,2.2.23,2.92-1.93,3.43-4.85,3.85-7.2,1-10,4.69-10.54,12.75-.34,4.9-.18,9.84-.08,14.75,0,2.52-.46,4.18-3.45,4-2.73-.16-2.47-2.15-2.49-3.92C932.51,397.46,932.54,392.55,932.54,387.63Z"/><path class="cls-5" d="M892.45,450.57c-3.24.06-6.4-1.49-6.48-6.68-.1-5.46,3.47-6.45,7.84-6.44,4.12,0,7.14,1.35,7.35,6.1C901.4,448.75,898.43,450.52,892.45,450.57Z"/><path class="cls-5" d="M868.54,450.53c-4.68-.35-7.27-2.65-6.7-7.61.63-5.45,4.7-5.56,8.82-5.44,4.57.14,6.55,2.68,6.31,7.07C876.68,450,872.93,450.69,868.54,450.53Z"/><path class="cls-8" d="M699.52,374.37c-1.79-1.6-1.67-3.74-1.55-5.82.06-1-.1-2.72,1.74-2.13a2.58,2.58,0,0,1,1.63,2.87C699.07,370.38,700.45,372.79,699.52,374.37Z"/><path class="cls-25" d="M143.82,124.59h26.94L180.38,101V11a11,11,0,0,0-11-11h-24.2a11,11,0,0,0-11,11v91.47Z"/><path class="cls-26" d="M143.82,190h26.94l9.62,23.57v90a11,11,0,0,1-11,11h-24.2a11,11,0,0,1-11-11V212.13Z"/><path class="cls-27" d="M170.88,124.81l19.08,19,23.45-9.91L277,70.16a11,11,0,0,0,0-15.54L259.8,37.53a11,11,0,0,0-15.54,0l-64.57,64.79Z"/><path class="cls-28" d="M190,144.07V171l23.58,9.62h90a11,11,0,0,0,11-11v-24.2a11,11,0,0,0-11-11H212.14Z"/><path class="cls-25" d="M190.05,171,170.88,190l9.71,23.53,63.23,64.08a11,11,0,0,0,15.55.1l17.22-17a11,11,0,0,0,.1-15.54L212.44,180Z"/><path class="cls-29" d="M143.68,124.78l-19.05,19.05L101.16,134,37.51,70.3a11,11,0,0,1,0-15.54l17.1-17.11a11,11,0,0,1,15.55,0l64.68,64.68Z"/><path class="cls-27" d="M124.59,144.07V171L101,180.63H11a11,11,0,0,1-11-11v-24.2a11,11,0,0,1,11-11h91.47Z"/><path class="cls-28" d="M124.56,171,143.73,190,134,213.48,70.78,277.56a11,11,0,0,1-15.54.1L38,260.66a11,11,0,0,1-.11-15.54L102.16,180Z"/></g></g></svg>