<?xml version="1.0" encoding="utf-8"?>
<!-- Generator: Adobe Illustrator 19.0.0, SVG Export Plug-In . SVG Version: 6.00 Build 0)  -->
<svg version="1.1" id="layer" xmlns="http://www.w3.org/2000/svg" xmlns:xlink="http://www.w3.org/1999/xlink" x="0px" y="0px"
	 viewBox="-153 -46 652 652" style="enable-background:new -153 -46 652 652;" xml:space="preserve">
<style type="text/css">
	.st0{fill:#03BFD7;}
</style>
<path class="st0" d="M166.1,268.3v-6h-6.6v38.8h7.1v-26.7c0,0,2.3-6.6,9.2-6.6c3.4,0,5.4,1.2,5.4,1.2l1.4-6.8c0,0-2.4-1-5.6-1
	C168.9,261.3,166.1,268.3,166.1,268.3L166.1,268.3z M141.7,289c0,0-3.7,6.6-11.4,6.6c-7.9,0-12.9-6.2-12.9-13.9
	c0-7.7,5-13.9,12.9-13.9c7.6,0,11.4,6.6,11.4,6.6L141.7,289L141.7,289z M142.3,267.9c0,0-3.8-6.6-13.1-6.6c-10.5,0-18.8,9-18.8,20.4
	c0,11.4,8.3,20.4,18.8,20.4c7.1,0,11.2-4.1,12.5-5.9v5.4c0,8.7-5.1,13.3-13.4,13.3c-8,0-12.7-6.1-12.7-6.1l-4.3,5.3
	c0,0,6.3,7.4,17,7.4c11.3,0,20.4-6.7,20.4-20.2v-39h-6.5L142.3,267.9L142.3,267.9z M369.4,289.2c0,0-3.1,6.4-9.7,6.4
	c-5.2,0-9.3-2.9-9.3-9.5v-23.8h-7.1v25c0,9.6,6.9,14.9,14.6,14.9c8.4,0,11.9-7,11.9-7v6h6.6v-38.8h-7.1L369.4,289.2L369.4,289.2z
	 M212.9,290.1c0,0-4.2,5.9-11.1,5.9c-4.4,0-8.9-2-8.9-7.1c0-4,3.8-7.1,9.8-7.1c6.3,0,10.2,2.8,10.2,2.8V290.1z M203,261.3
	c-9.3,0-14.5,4-14.5,4l2.9,5.9c0,0,4.5-3.3,11.6-3.3c3.1,0,9.8,1.1,9.8,9.2v2.1c0,0-4.5-3.2-11.7-3.2c-8.7,0-15.4,5.4-15.4,12.9
	c0,8.4,7.5,13.3,14.5,13.3c8.8,0,13.2-6.6,13.2-6.6v5.6h6.5v-25.6C219.9,268.4,214.5,261.3,203,261.3z M73.3,278.4
	c0.5-4,4-10.5,12.4-10.5c7.8,0,11.8,6.1,12,10.5C97.7,278.4,73.3,278.4,73.3,278.4z M85.6,261.3c-11.7,0-19.4,9.1-19.4,20.4
	c0,11.5,8.5,20.4,20.3,20.4c10.3,0,16.2-7.7,16.2-7.7l-4.5-4.6c0,0-4,5.7-11.7,5.7c-7.3,0-12.9-5.5-13.4-11.3h31.4
	c0.1-0.9,0.1-1.5,0.1-2.3C104.5,269.5,96.5,261.3,85.6,261.3L85.6,261.3z M303.7,301.2h7.1v-23.4h23.8v-6.7h-23.8v-22h25.3v-6.7
	h-32.4L303.7,301.2L303.7,301.2z M406.9,261.3c-8.4,0-11.9,6.5-11.9,6.5v-5.5h-6.6v38.8h7.1v-26.7c0,0,3.4-6.6,9.7-6.6
	c5.2,0,9.3,2.9,9.3,9.5v23.8h7.1v-25C421.5,266.6,414.6,261.3,406.9,261.3z M259.4,288.9c0,0-3.7,6.7-11.4,6.7
	c-7.9,0-12.9-6.2-12.9-13.9c0-7.7,5.1-13.9,12.9-13.9s11.4,6.7,11.4,6.7S259.4,288.9,259.4,288.9z M259.4,267.1c0,0-4-5.8-12.5-5.8
	c-10.5,0-18.8,9-18.8,20.4c0,11.4,8.3,20.4,18.8,20.4c9.3,0,13.1-6.6,13.1-6.6v5.6h6.5v-60.3h-7.1V267.1L259.4,267.1z M461.4,288.9
	c0,0-3.7,6.7-11.4,6.7c-7.9,0-12.9-6.2-12.9-13.9c0-7.7,5.1-13.9,12.9-13.9c7.7,0,11.4,6.7,11.4,6.7V288.9L461.4,288.9z
	 M461.4,240.9v26.2c0,0-3.9-5.8-12.5-5.8c-10.5,0-18.8,9-18.8,20.4c0,11.4,8.3,20.4,18.8,20.4c9.3,0,13.1-6.6,13.1-6.6v5.6h6.5
	v-60.3L461.4,240.9L461.4,240.9z M15.5,245.1c-2.6,0-4.8,2.2-4.8,4.8c0,2.6,2.2,4.8,4.8,4.8c2.6,0,4.8-2.2,4.8-4.8
	C20.3,247.3,18.1,245.1,15.5,245.1L15.5,245.1z M-17.6,285.4l-17-43.1h-7.7l24.6,60.5l24.5-60.5h-7.3
	C-0.5,242.3-17.6,285.4-17.6,285.4z M12,301.2h7.1v-38.8H12V301.2L12,301.2z M46.3,278.5c-7-1.6-9.4-2.9-9.4-5.9c0-2.8,2.4-5,7.4-5
	c5.9,0,10.1,3.9,10.1,3.9l4.4-5c0,0-5.3-5.3-14.5-5.3c-8.6,0-14.3,5.6-14.3,11.2c0,7.3,5.9,10.6,14.2,12.3c6,1.2,8.8,2.9,8.8,6.2
	c0,2.8-2.8,4.8-8.2,4.8c-7.6,0-12-6.3-12-6.3L28,294c0,0,5.5,8.2,16.9,8.2c8.2,0,15.2-4.1,15.2-11.4C60,282.9,53.7,280.2,46.3,278.5
	z M43.2,384.3c-7,0-12.7,5.7-12.7,12.6c0,0,0,0,0,0c0,7,5.7,12.6,12.6,12.7c0,0,0,0,0,0c7,0,12.6-5.6,12.7-12.6c0,0,0,0,0,0
	C55.9,390,50.2,384.3,43.2,384.3C43.2,384.3,43.2,384.3,43.2,384.3L43.2,384.3z M-37.8,364c-7,0-12.7,5.6-12.7,12.6c0,0,0,0,0,0
	c0,7,5.7,12.6,12.6,12.6c0,0,0,0,0,0c7,0,12.6-5.6,12.7-12.6c0,0,0,0,0,0C-25.2,369.7-30.8,364.1-37.8,364
	C-37.8,364-37.8,364-37.8,364z M-118.8,262.8c-7,0-12.7,5.7-12.7,12.6c0,0,0,0,0,0c0,7,5.7,12.7,12.6,12.7c0,0,0,0,0,0
	c7,0,12.7-5.6,12.7-12.6c0,0,0,0,0,0C-106.2,268.4-111.8,262.8-118.8,262.8C-118.8,262.8-118.8,262.8-118.8,262.8L-118.8,262.8z
	 M76.1,153.9c0-7-5.6-12.6-12.6-12.7c0,0,0,0,0,0c-7,0-12.6,5.7-12.7,12.6c0,0,0,0,0,0c0,7,5.7,12.7,12.6,12.7c0,0,0,0,0,0
	C70.4,166.6,76.1,160.9,76.1,153.9C76.1,153.9,76.1,153.9,76.1,153.9L76.1,153.9z"/>
</svg>
